<svg width="28" height="29" viewBox="0 0 28 29" fill="none" xmlns="http://www.w3.org/2000/svg">
<path fill-rule="evenodd" clip-rule="evenodd" d="M18.4419 22.8523C18.9949 22.5393 19.1753 21.7427 18.8083 21.234C18.706 21.0921 17.1257 19.6312 15.2964 17.9875L11.9704 14.999L15.2973 12.0101C17.127 10.3662 18.7074 8.90503 18.8093 8.76312C18.9289 8.59653 18.9947 8.35683 18.9951 8.08643C18.9956 7.71445 18.9549 7.6306 18.6296 7.33388C18.2955 7.02916 18.2193 7 17.7585 7H17.2535L13.1268 10.7639L9 14.5277V14.959C9 15.2142 9.06299 15.4772 9.15418 15.6029C9.37757 15.9112 16.5225 22.452 16.9588 22.7478C17.3877 23.0386 18.0326 23.084 18.4419 22.8523Z" fill="#424961"/>
<path d="M5 0.5H23C25.4853 0.5 27.5 2.51472 27.5 5V24C27.5 26.4853 25.4853 28.5 23 28.5H5C2.51472 28.5 0.5 26.4853 0.5 24V5C0.5 2.51472 2.51472 0.5 5 0.5Z" stroke="#424961"/>
</svg>
